<?xml version="1.0" encoding="UTF-8"?>
<svg id="Ebene_1" data-name="Ebene 1" xmlns="http://www.w3.org/2000/svg" viewBox="0 0 526.25 602.95">
  <defs>
    <style>
      .cls-1 {
        fill: #fff;
        stroke-width: 0px;
      }
    </style>
  </defs>
  <g>
    <path class="cls-1" d="M262.06,373.1c0-73.32,59.65-132.98,132.98-132.98,20.99,0,40.85,4.91,58.52,13.61V29.26c0-16.16-13.1-29.26-29.26-29.26H29.26C13.1,0,0,13.1,0,29.26v349.85h87.79c24.92,0,45.19,20.27,45.19,45.19v87.79h147.57l27.22-38.66c-28.87-25.11-45.7-61.56-45.7-100.34ZM234.1,69.5h120.71c8.08,0,14.63,6.55,14.63,14.63s-6.55,14.63-14.63,14.63h-120.71c-8.08,0-14.63-6.55-14.63-14.63s6.55-14.63,14.63-14.63ZM98.76,69.5h69.5c8.08,0,14.63,6.55,14.63,14.63s-6.55,14.63-14.63,14.63h-69.5c-8.08,0-14.63-6.55-14.63-14.63s6.55-14.63,14.63-14.63ZM98.76,149.97h256.05c8.08,0,14.63,6.55,14.63,14.63s-6.55,14.63-14.63,14.63H98.76c-8.08,0-14.63-6.55-14.63-14.63s6.55-14.63,14.63-14.63ZM98.76,230.44h142.65c8.08,0,14.63,6.55,14.63,14.63s-6.55,14.63-14.63,14.63H98.76c-8.08,0-14.63-6.55-14.63-14.63s6.55-14.63,14.63-14.63ZM98.76,340.18c-8.08,0-14.63-6.55-14.63-14.63s6.55-14.63,14.63-14.63h128.02c8.08,0,14.63,6.55,14.63,14.63s-6.55,14.63-14.63,14.63H98.76ZM245.07,420.65h-80.47c-8.08,0-14.63-6.55-14.63-14.63s6.55-14.63,14.63-14.63h80.47c8.08,0,14.63,6.55,14.63,14.63s-6.55,14.63-14.63,14.63Z"/>
    <path class="cls-1" d="M524.42,549.18l-57.94-82.3c-.17-.24-.39-.42-.58-.64,28.06-21.38,46.19-55.14,46.19-93.14,0-43.32-23.55-81.11-58.53-101.35-17.22-9.97-37.2-15.7-58.52-15.7-64.64,0-117.05,52.41-117.05,117.05,0,40.39,20.46,76,51.58,97.04l-29.54,41.96-26.11,37.08c-4.64,6.6.16,15.56,8.03,15.56.25,0,.5,0,.75-.03l32.62-2.33c.24-.02.47-.03.71-.03,3.52,0,6.8,1.88,8.56,4.96l17.57,30.66c1.91,3.33,5.24,4.97,8.55,4.97,3.64,0,7.27-1.96,9.01-5.8l38.52-85.05.94-2.07.94,2.07,38.52,85.05c1.74,3.84,5.37,5.8,9.01,5.8,3.32,0,6.65-1.63,8.56-4.97l17.57-30.66c1.77-3.08,5.04-4.96,8.56-4.96.23,0,.47,0,.71.03l32.62,2.33c.25.02.5.03.75.03,7.86,0,12.67-8.96,8.03-15.56ZM451.16,366.91l-19.67,19.17c-1.87,1.83-2.73,4.46-2.29,7.03l4.64,27.07c1.11,6.49-5.7,11.44-11.53,8.38l-24.31-12.78c-2.31-1.22-5.08-1.22-7.4,0l-24.31,12.78c-5.83,3.07-12.64-1.89-11.53-8.38l4.64-27.07c.44-2.58-.41-5.21-2.29-7.03l-19.67-19.17c-4.71-4.6-2.11-12.61,4.41-13.56l27.18-3.95c2.59-.38,4.83-2,5.98-4.35l12.16-24.63c2.92-5.91,11.34-5.91,14.25,0l12.16,24.63c1.16,2.35,3.4,3.97,5.98,4.35l27.18,3.95c6.52.95,9.12,8.96,4.4,13.56Z"/>
  </g>
  <path class="cls-1" d="M87.79,396.97H0c25.71,25.71,45.07,45.07,65.22,65.22,6.72,6.72,13.52,13.52,20.68,20.68,4.77,4.77,25.43,25.43,31.15,31.15v-87.79c0-16.16-13.1-29.26-29.26-29.26Z"/>
</svg>