<?xml version="1.0" encoding="UTF-8"?>
<svg id="Ebene_1" data-name="Ebene 1" xmlns="http://www.w3.org/2000/svg" viewBox="0 0 607.91 547.12">
  <defs>
    <style>
      .cls-1 {
        fill: #fff;
        stroke-width: 0px;
      }
    </style>
  </defs>
  <path class="cls-1" d="M573.17,547.12H34.74c-19.19,0-34.74-15.55-34.74-34.74h0c0-19.18,15.55-34.74,34.74-34.74h538.43c19.19,0,34.74,15.55,34.74,34.74h0c0,19.18-15.55,34.74-34.74,34.74Z"/>
  <rect class="cls-1" x="234.48" y="182.37" width="138.95" height="330.01" rx="1.83" ry="1.83"/>
  <rect class="cls-1" x="43.42" y="330.01" width="138.95" height="182.37" rx="1.83" ry="1.83"/>
  <rect class="cls-1" x="425.54" y="286.59" width="138.95" height="225.79" rx="1.83" ry="1.83"/>
  <path class="cls-1" d="M313.77,6.1l16.74,33.92c1.59,3.23,4.68,5.47,8.24,5.99l37.43,5.44c8.98,1.31,12.56,12.34,6.07,18.67l-27.09,26.41c-2.58,2.51-3.76,6.14-3.15,9.69l6.39,37.29c1.53,8.94-7.85,15.76-15.88,11.54l-33.48-17.61c-3.19-1.68-7-1.68-10.19,0l-33.48,17.61c-8.03,4.22-17.42-2.6-15.88-11.54l6.39-37.29c.61-3.55-.57-7.17-3.15-9.69l-27.09-26.41c-6.5-6.33-2.91-17.36,6.07-18.67l37.43-5.44c3.57-.52,6.65-2.76,8.24-5.99l16.74-33.92c4.02-8.14,15.62-8.14,19.63,0Z"/>
  <path class="cls-1" d="M504.83,110.32l16.74,33.92c1.59,3.23,4.68,5.47,8.24,5.99l37.43,5.44c8.98,1.31,12.56,12.34,6.07,18.67l-27.09,26.41c-2.58,2.51-3.76,6.14-3.15,9.69l6.39,37.29c1.53,8.94-7.85,15.76-15.88,11.54l-33.48-17.61c-3.19-1.68-7-1.68-10.19,0l-33.48,17.61c-8.03,4.22-17.42-2.6-15.88-11.54l6.39-37.29c.61-3.55-.57-7.17-3.15-9.69l-27.09-26.41c-6.5-6.33-2.91-17.36,6.07-18.67l37.43-5.44c3.57-.52,6.65-2.76,8.24-5.99l16.74-33.92c4.02-8.14,15.62-8.14,19.63,0Z"/>
  <path class="cls-1" d="M122.71,153.74l16.74,33.92c1.59,3.23,4.68,5.47,8.24,5.99l37.43,5.44c8.98,1.31,12.56,12.34,6.07,18.67l-27.09,26.41c-2.58,2.51-3.76,6.14-3.15,9.69l6.39,37.29c1.53,8.94-7.85,15.76-15.88,11.54l-33.48-17.61c-3.19-1.68-7-1.68-10.19,0l-33.48,17.61c-8.03,4.22-17.42-2.6-15.88-11.54l6.39-37.29c.61-3.55-.57-7.17-3.15-9.69l-27.09-26.41c-6.5-6.33-2.91-17.36,6.07-18.67l37.43-5.44c3.57-.52,6.65-2.76,8.24-5.99l16.74-33.92c4.02-8.14,15.62-8.14,19.63,0Z"/>
</svg>