<?xml version="1.0" encoding="UTF-8"?>
<svg id="Ebene_1" data-name="Ebene 1" xmlns="http://www.w3.org/2000/svg" viewBox="0 0 487.2 655.84">
  <defs>
    <style>
      .cls-1 {
        fill: #fff;
        stroke-width: 0px;
      }
    </style>
  </defs>
  <path class="cls-1" d="M394.29,434.91c56.56-44.61,92.9-113.7,92.9-191.32C487.2,109.06,378.13,0,243.6,0S0,109.06,0,243.6c0,77.62,36.35,146.71,92.91,191.32l-84.47,119.97c-8.99,12.78.89,30.28,16.48,29.16l61.24-4.38c7.1-.51,13.87,3.1,17.41,9.27l32.99,57.57c7.52,13.12,26.73,12.21,32.97-1.56l71.48-157.82c.87,0,1.73.07,2.61.07s1.73-.06,2.6-.07l71.48,157.82c6.24,13.77,25.45,14.68,32.97,1.56l32.99-57.57c3.54-6.18,10.3-9.78,17.41-9.27l61.23,4.38c15.59,1.11,25.48-16.38,16.48-29.16l-84.47-119.97ZM70.27,243.6c0-95.73,77.6-173.33,173.33-173.33s173.33,77.6,173.33,173.33c0,63.3-33.95,118.65-84.61,148.9-17.83,10.65-37.74,18.16-58.97,21.83-9.67,1.67-19.6,2.6-29.74,2.6s-20.08-.92-29.75-2.6c-21.23-3.67-41.14-11.18-58.97-21.83-50.67-30.25-84.61-85.6-84.61-148.9Z"/>
  <path class="cls-1" d="M246.47,380.04c56.61,0,105.99-31.52,131.53-77.93,4.6-8.35,2.99-18.86-4.26-25.07-13.9-11.9-29.49-21.88-46.36-29.54-6.69-3.04-14.42-2.1-20.39,2.17-17.07,12.22-37.93,19.46-60.53,19.46s-43.46-7.24-60.53-19.46c-5.97-4.28-13.7-5.22-20.39-2.17-16.87,7.66-32.45,17.64-46.35,29.54-7.24,6.2-8.85,16.71-4.26,25.07,25.54,46.41,74.92,77.93,131.53,77.93Z"/>
  <path class="cls-1" d="M257.52,236.71c27.04-4.43,48.84-26.24,53.28-53.28,7.32-44.65-30.73-82.7-75.38-75.38-27.04,4.43-48.84,26.24-53.28,53.28-7.32,44.65,30.73,82.7,75.37,75.38Z"/>
</svg>