<?xml version="1.0" encoding="UTF-8"?>
<svg id="Ebene_1" data-name="Ebene 1" xmlns="http://www.w3.org/2000/svg" viewBox="0 0 462.08 469.03">
  <defs>
    <style>
      .cls-1 {
        fill: #fff;
        stroke-width: 0px;
      }
    </style>
  </defs>
  <path class="cls-1" d="M80.4,361.82H0c11.78,11.78,22.07,22.07,31.76,31.76,3.23,3.23,6.41,6.41,9.53,9.53,8.31,8.31,16.33,16.33,24.64,24.65,8.31,8.31,16.91,16.91,26.37,26.37,4.73,4.73,9.68,9.68,14.91,14.91v-80.4c0-14.8-12-26.8-26.8-26.8Z"/>
  <path class="cls-1" d="M361.82,197.41c19.37,0,37.61,4.86,53.6,13.41V26.8c0-14.8-12-26.8-26.8-26.8H26.8C12,0,0,12,0,26.8v321.12h80.4c22.44,0,40.7,18.26,40.7,40.7v80.4h267.52c14.8,0,26.8-12,26.8-26.8v-29.91c-15.99,8.54-34.24,13.41-53.6,13.41-62.95,0-114.15-51.21-114.15-114.16s51.21-114.15,114.15-114.15ZM90.45,63.65h63.65c7.4,0,13.4,6,13.4,13.4s-6,13.4-13.4,13.4h-63.65c-7.4,0-13.4-6-13.4-13.4s6-13.4,13.4-13.4ZM90.45,311.57c-7.4,0-13.4-6-13.4-13.4s6-13.4,13.4-13.4h117.26c7.4,0,13.4,6,13.4,13.4s-6,13.4-13.4,13.4h-117.26ZM77.05,224.46c0-7.4,6-13.4,13.4-13.4h130.66c7.4,0,13.4,6,13.4,13.4s-6,13.4-13.4,13.4H90.45c-7.4,0-13.4-6-13.4-13.4ZM224.46,385.27h-73.7c-7.4,0-13.4-6-13.4-13.4s6-13.4,13.4-13.4h73.7c7.4,0,13.4,6,13.4,13.4s-6,13.4-13.4,13.4ZM90.45,164.16c-7.4,0-13.4-6-13.4-13.4s6-13.4,13.4-13.4h234.51c7.4,0,13.4,6,13.4,13.4s-6,13.4-13.4,13.4H90.45Z"/>
  <path class="cls-1" d="M415.42,226.91c-15.52-9.86-33.9-15.6-53.6-15.6-55.28,0-100.26,44.97-100.26,100.26s44.97,100.26,100.26,100.26c19.71,0,38.09-5.74,53.6-15.6,28.01-17.8,46.65-49.08,46.65-84.66s-18.64-66.86-46.65-84.66ZM431.93,293.65l-71.07,71.07c-2.61,2.62-6.05,3.93-9.47,3.93s-6.86-1.31-9.47-3.93l-42.64-42.64c-5.23-5.23-5.23-13.72,0-18.95,5.23-5.23,13.71-5.23,18.95,0l33.17,33.16,61.59-61.59c5.23-5.23,13.72-5.23,18.95,0,5.23,5.23,5.23,13.72,0,18.95Z"/>
</svg>