<?xml version="1.0" encoding="UTF-8"?>
<svg id="Ebene_1" data-name="Ebene 1" xmlns="http://www.w3.org/2000/svg" viewBox="0 0 625.7 534.98">
  <defs>
    <style>
      .cls-1 {
        fill: #fff;
        stroke-width: 0px;
      }
    </style>
  </defs>
  <path class="cls-1" d="M67.23,263.89L393.04,44.87c2.26-1.52,4.62-2.85,7.02-4.06l-21.7-24.56c-17.6-19.92-48.01-21.79-67.93-4.19L16.26,272.02c-19.92,17.6-21.79,48.01-4.19,67.93l114.06,129.07c2.72,3.08,5.78,5.67,9.02,7.89l-84.91-126.31c-19.22-28.59-11.6-67.49,17-86.71Z"/>
  <path class="cls-1" d="M122.08,275.22L476.03,105.4c4.1-1.97,8.34-3.46,12.68-4.49l-20.86-31.04c-9.29-13.82-24.5-21.28-39.98-21.28-6.02,0-12.08,1.15-17.85,3.47-3.08,1.24-6.09,2.79-8.96,4.72L75.25,275.81c-22.06,14.83-27.92,44.73-13.09,66.79l80.14,119.21-49.53-103.23c-14.9-31.06-1.76-68.46,29.31-83.36Z"/>
  <path class="cls-1" d="M620.95,296.22l-74.51-155.3c-8.28-17.25-25.49-27.32-43.42-27.32-1.85,0-3.71.12-5.56.34-5.15.6-10.29,2.04-15.22,4.41l-353.95,169.81c-23.96,11.5-34.07,40.24-22.57,64.21l71.87,149.8,2.64,5.5c8.28,17.25,25.49,27.32,43.42,27.32,6.98,0,14.07-1.53,20.78-4.75l353.95-169.81c23.96-11.5,34.07-40.24,22.57-64.21ZM408.25,417.92c-51.71,24.81-113.74,3-138.55-48.71-24.81-51.71-3-113.74,48.71-138.55,51.71-24.81,113.74-3,138.55,48.71,24.81,51.71,3,113.74-48.71,138.55Z"/>
  <path class="cls-1" d="M299.82,350.27c-2.72,1.3-5.9.32-7.2-2.39-1.38-2.89-.24-6.15,2.48-7.46l11.72-5.62c-6.85-29.51,6.71-60.45,35.24-74.14,15.45-7.41,30.36-7.67,45.05-4.49,4.7,1.09,9.17,6.05,7.2,12.84-1.6,5.36-8.04,7.2-12.49,6.62-9.83-1.34-19.06-3.6-31.46,2.35-18.68,8.96-27.92,28.44-25.04,47.94l39.39-18.9c2.72-1.3,5.98-.16,7.37,2.73,1.3,2.72.07,5.81-2.64,7.12l-69.61,33.4ZM374.08,326.55c2.72-1.3,5.98-.16,7.37,2.73,1.3,2.72.07,5.81-2.64,7.12l-38.71,18.57c13.52,12.94,33.41,16.97,51.24,8.42,12.39-5.95,16.41-14.56,21.52-23.06,2.34-3.84,7.79-7.71,12.98-5.6,6.53,2.72,7.6,9.3,5.5,13.65-6.71,13.45-16.24,24.92-31.69,32.33-27.68,13.28-59.31,5.69-78.23-16.78l-12.22,5.87c-2.72,1.3-5.9.33-7.2-2.39-1.38-2.89-.24-6.15,2.48-7.46l69.61-33.4Z"/>
</svg>